<?xml version="1.0" encoding="UTF-8"?>
<svg id="Vrstva_1" xmlns="http://www.w3.org/2000/svg" version="1.1" viewBox="0 0 1439.73 384.45">
  <!-- Generator: Adobe Illustrator 29.0.0, SVG Export Plug-In . SVG Version: 2.1.0 Build 186)  -->
  <defs>
    <style>
      .st0 {
        fill: #21221f;
      }
    </style>
  </defs>
  <path class="st0" d="M156.69,232.31h30.91c5.81,0,10.32-1.36,13.54-4.09,3.21-2.72,4.81-6.51,4.81-11.36s-1.61-8.45-4.81-11.17c-3.22-2.73-7.73-4.1-13.54-4.1h-30.91v30.72ZM156.69,177.59h25.99c4.84,0,8.54-1.19,11.09-3.54,2.54-2.36,3.82-5.43,3.82-9.18s-1.28-6.82-3.82-9.19c-2.54-2.36-6.24-3.54-11.09-3.54h-25.99v25.45ZM206.31,132.42c6.06,2.85,10.73,6.82,14,11.91,3.27,5.09,4.91,10.84,4.91,17.27,0,9.7-4.18,18.12-12.55,25.27,6.18,2.9,11.36,7.02,15.55,12.36,4.18,5.33,6.27,11.69,6.27,19.08s-1.97,14-5.91,19.81c-3.94,5.81-9.27,10.3-15.99,13.46-6.73,3.15-14.16,4.72-22.27,4.72h-62.17v-128.15h56.53c8.36,0,15.57,1.42,21.63,4.27"/>
  <path class="st0" d="M320.2,155.96c-5.88,3.52-10.45,8.43-13.73,14.72-3.27,6.31-4.91,13.51-4.91,21.63s1.64,15.3,4.91,21.54c3.27,6.25,7.84,11.12,13.73,14.64,5.88,3.51,12.57,5.26,20.08,5.26s14.21-1.75,20.08-5.26c5.88-3.52,10.45-8.39,13.73-14.64,3.27-6.23,4.91-13.42,4.91-21.54s-1.64-15.33-4.91-21.63c-3.28-6.3-7.85-11.21-13.73-14.72-5.88-3.52-12.57-5.27-20.08-5.27s-14.21,1.76-20.08,5.27M375.63,134.51c10.24,6.06,18.18,14.21,23.81,24.45,5.63,10.25,8.45,21.36,8.45,33.35s-2.82,23.08-8.45,33.26c-5.63,10.18-13.57,18.3-23.81,24.36-10.24,6.06-22.02,9.09-35.35,9.09s-25.11-3.02-35.35-9.09c-10.25-6.06-18.18-14.18-23.82-24.36-5.63-10.18-8.45-21.26-8.45-33.26s2.82-23.11,8.45-33.35c5.64-10.24,13.57-18.39,23.82-24.45,10.24-6.06,22.02-9.09,35.35-9.09s25.11,3.03,35.35,9.09"/>
  <polygon class="st0" points="535.84 256.3 535.84 203.04 482.22 203.04 482.22 256.3 453.68 256.3 453.68 128.15 482.22 128.15 482.22 179.04 535.84 179.04 535.84 128.15 564.38 128.15 564.38 256.3 535.84 256.3"/>
  <polygon class="st0" points="648.93 152.15 648.93 177.59 701.64 177.59 701.64 201.59 648.93 201.59 648.93 232.31 714.91 232.31 714.91 256.3 620.39 256.3 620.39 128.15 714.91 128.15 714.91 152.15 648.93 152.15"/>
  <polygon class="st0" points="875.96 256.3 875.96 189.95 840.15 256.3 830.15 256.3 794.35 189.95 794.35 256.3 765.81 256.3 765.81 128.15 789.8 128.15 835.24 211.94 880.51 128.15 904.5 128.15 904.5 256.3 875.96 256.3"/>
  <path class="st0" d="M984.6,179.41h37.44c4.85,0,8.54-1.27,11.09-3.82,2.54-2.54,3.81-5.82,3.81-9.81s-1.28-7.27-3.81-9.82c-2.55-2.55-6.24-3.81-11.09-3.81h-37.44v27.26ZM1046.77,133.23c6.3,3.4,11,7.94,14.08,13.64,3.09,5.7,4.64,12,4.64,18.91s-1.55,13.21-4.64,18.9c-3.09,5.7-7.79,10.24-14.08,13.64-6.3,3.39-14.06,5.09-23.27,5.09h-38.9v52.89h-28.54v-128.15h67.44c9.21,0,16.96,1.7,23.27,5.09"/>
  <rect class="st0" x="1111.27" y="128.15" width="28.54" height="128.15"/>
  <path class="st0" d="M1261.78,205.77l-15.64-41.99-15.63,41.99h31.27ZM1280.68,256.3l-9.82-26.54h-49.44l-9.82,26.54h-30.89l54.17-128.15h22.54l54.17,128.15h-30.9Z"/>
</svg>